<!DOCTYPE svg PUBLIC "-//W3C//DTD SVG 1.1//EN" "http://www.w3.org/Graphics/SVG/1.1/DTD/svg11.dtd">
<!-- Uploaded to: SVG Repo, www.svgrepo.com, Transformed by: SVG Repo Mixer Tools -->
<svg fill="#000000" height="64px" width="64px" version="1.1" id="Capa_1" xmlns="http://www.w3.org/2000/svg" xmlns:xlink="http://www.w3.org/1999/xlink" viewBox="0 0 298.781 298.781" xml:space="preserve">
<g id="SVGRepo_bgCarrier" stroke-width="0"/>
<g id="SVGRepo_tracerCarrier" stroke-linecap="round" stroke-linejoin="round"/>
<g id="SVGRepo_iconCarrier"> <g> <path d="M134.602,154.218c-0.018-0.188-0.016-0.373-0.031-0.56c-0.135-1.683-0.14-3.354-0.008-5H36.483 c-3.581,0-6.483-2.903-6.483-6.483V59.141c0-3.581,2.903-6.483,6.483-6.483h162.175c3.581,0,6.483,2.903,6.483,6.483v43.32 l6.81-2.602c2.635-1.007,5.376-1.747,8.18-2.05c5.055-0.546,10.037,0.096,14.715,1.884l0.295,0.113V54.658 c0-17.673-14.327-32-32-32H32c-17.673,0-32,14.327-32,32v92c0,17.673,14.327,32,32,32h57.904v20.666l-5.243,0 c-8.077,0-15.027,6.207-15.407,14.275c-0.406,8.614,6.458,15.725,14.983,15.725h66.667c1.551,0,3.048-0.236,4.456-0.673 C144.326,204.919,136.935,177.944,134.602,154.218z"/> <path d="M287.56,134.824l-57.711-22.053c-2.007-0.767-4.121-1.15-6.234-1.15c-2.113,0-4.227,0.383-6.234,1.15l-57.711,22.053 c-7.347,2.807-11.905,10.196-11.136,18.024c5.04,51.243,36.654,123.275,75.081,123.275c38.426,0,70.041-72.033,75.081-123.275 C299.467,145.008,294.919,137.635,287.56,134.824z M275.623,165.454c-3.491,35.496-25.39,85.394-52.008,85.394 c-26.618,0-48.518-49.897-52.009-85.394c-0.533-5.422,2.624-10.541,7.714-12.485l39.977-15.275c1.39-0.531,2.854-0.797,4.318-0.797 c1.464,0,2.928,0.266,4.318,0.797l39.976,15.275C273.006,154.916,276.157,160.023,275.623,165.454z"/> <path d="M186.773,166.178c4.09,34.126,23.935,69.669,36.842,69.669h0v-83.746h0L186.773,166.178z"/> </g> </g>
</svg>