<?xml version="1.0" encoding="utf-8"?>
<!-- Generator: Adobe Illustrator 22.1.0, SVG Export Plug-In . SVG Version: 6.00 Build 0)  -->
<svg version="1.1" id="Layer_1" xmlns="http://www.w3.org/2000/svg" xmlns:xlink="http://www.w3.org/1999/xlink" x="0px" y="0px"
	 viewBox="0 0 256 256" style="enable-background:new 0 0 256 256;" xml:space="preserve">
<style type="text/css">
	.st0{fill:#D73735;}
	.st1{fill:#F85252;}
	.st2{fill:#EDAF85;}
	.st3{fill:#F7C09A;}
	.st4{fill:#D8D6D7;}
	.st5{fill:#FFFFFF;}
	.st6{fill:#1C868E;}
	.st7{fill:#40C4DF;}
	.st8{fill:#491352;}
	.st9{fill:#56C1B3;}
	.st10{fill:#7BEFE4;}
</style>
<g>
	<path class="st6" d="M163.775,8.17v239.66c0,2.76-2.24,5-5,5H15.325c-2.77,0-5-2.24-5-5V8.17c0-2.76,2.23-5,5-5h143.45
		C161.535,3.17,163.775,5.41,163.775,8.17z"/>
	<path class="st7" d="M163.775,8.17v239.66c0,2.76-2.24,5-5,5H32.715c-2.76,0-5-2.24-5-5V8.17c0-2.76,2.24-5,5-5h126.06
		C161.535,3.17,163.775,5.41,163.775,8.17z"/>
	<path class="st0" d="M101.435,42.89c0,5.33-2.89,9.98-7.19,12.47c-2.12,1.23-4.57,1.93-7.2,1.93c-7.95,0-14.39-6.45-14.39-14.4
		c0-7.95,6.44-14.39,14.39-14.39c2.63,0,5.08,0.7,7.2,1.93C98.545,32.91,101.435,37.56,101.435,42.89z"/>
	<path class="st1" d="M101.435,42.89c0,5.33-2.89,9.98-7.19,12.47c-4.3-2.49-7.2-7.14-7.2-12.47s2.9-9.98,7.2-12.46
		C98.545,32.91,101.435,37.56,101.435,42.89z"/>
	<path class="st6" d="M173.665,239h-9.894v-36.5h9.894c2.761,0,5,2.239,5,5V234C178.665,236.761,176.426,239,173.665,239z"/>
	<path class="st6" d="M245.675,54.42v17.09c0,9.99-6.23,18.52-15.01,21.92c-2.64,1.03-5.5,1.59-8.5,1.59
		c-12.99,0-23.51-10.52-23.51-23.51V54.42c0-4.1,3.32-7.43,7.42-7.43h32.18C242.355,46.99,245.675,50.32,245.675,54.42z"/>
	<path class="st7" d="M245.675,54.42v17.09c0,9.99-6.23,18.52-15.01,21.92c-8.79-3.39-15.03-11.92-15.03-21.92V54.42
		c0-4.1,3.32-7.43,7.42-7.43h15.2C242.355,46.99,245.675,50.32,245.675,54.42z"/>
	<g>
		<path class="st8" d="M87.045,59.29c9.04,0,16.39-7.36,16.39-16.4c0-9.04-7.35-16.39-16.39-16.39s-16.39,7.35-16.39,16.39
			C70.655,51.93,78.005,59.29,87.045,59.29z M87.045,30.5c6.84,0,12.39,5.56,12.39,12.39c0,6.84-5.55,12.4-12.39,12.4
			c-6.83,0-12.39-5.56-12.39-12.4C74.655,36.06,80.215,30.5,87.045,30.5z"/>
		<path class="st8" d="M36.927,28.5v200c0,2.642,4,2.646,4,0v-200C40.927,25.858,36.927,25.854,36.927,28.5z"/>
		<path class="st8" d="M133.165,28.5v200c0,2.642,4,2.646,4,0v-200C137.165,25.858,133.165,25.854,133.165,28.5z"/>
		<path class="st8" d="M64.364,197.5h43.683c2.642,0,2.646-4,0-4H64.364C61.721,193.5,61.718,197.5,64.364,197.5z"/>
		<path class="st8" d="M116.046,209.5h-58c-2.642,0-2.646,4,0,4h58C118.689,213.5,118.692,209.5,116.046,209.5z"/>
		<path class="st8" d="M238.255,44.99h-1.173V29.158c0-2.642-4-2.646-4,0V44.99h-21.834V29.158c0-2.642-4-2.646-4,0V44.99h-1.173
			c-5.19,0-9.42,4.23-9.42,9.43v17.09c0,13.4,10.37,24.41,23.51,25.43v118.81c0,1.65-1.35,3-3,3h-36.5V207.5c0-3.86-3.14-7-7-7
			h-7.89V8.17c0-3.86-3.14-7-7-7H15.325c-3.86,0-7,3.14-7,7v239.66c0,3.86,3.14,7,7,7h143.45c3.86,0,7-3.14,7-7V241h7.89
			c3.86,0,7-3.14,7-7v-11.25h36.5c3.86,0,7-3.14,7-7V96.94c13.14-1.02,23.51-12.03,23.51-25.43V54.42
			C247.675,49.22,243.445,44.99,238.255,44.99z M161.775,247.83c0,1.66-1.35,3-3,3H15.325c-1.66,0-3-1.34-3-3V8.17
			c0-1.66,1.34-3,3-3h143.45c1.65,0,3,1.34,3,3C161.775,27.431,161.775,240.178,161.775,247.83z M176.665,234c0,1.65-1.35,3-3,3
			h-7.89v-32.5h7.89c1.65,0,3,1.35,3,3C176.665,216.941,176.665,224.682,176.665,234z M243.675,71.51
			c0,11.874-9.666,21.51-21.51,21.51c-11.824,0-21.51-9.617-21.51-21.51V54.42c0-2.99,2.43-5.43,5.42-5.43
			c27.223,0,23.906,0,32.18,0c2.99,0,5.42,2.44,5.42,5.43V71.51z"/>
	</g>
</g>
</svg>
